<mxfile host="app.diagrams.net" modified="2022-10-28T06:31:30.003Z" agent="5.0 (Macintosh; Intel Mac OS X 10_15_7) AppleWebKit/537.36 (KHTML, like Gecko) Chrome/106.0.0.0 Safari/537.36" etag="O48e3qncQ3fomKI5ECfd" version="20.5.1" type="github">
  <diagram id="a7gbFWGGzf8Zfr4ufiJH" name="Page-1">
    <mxGraphModel dx="2194" dy="2031" grid="1" gridSize="10" guides="1" tooltips="1" connect="1" arrows="1" fold="1" page="1" pageScale="1" pageWidth="1654" pageHeight="1169" math="0" shadow="0">
      <root>
        <mxCell id="0" />
        <mxCell id="1" parent="0" />
        <mxCell id="3eLNF5xgnCl6N7QSNLwA-101" value="" style="rounded=0;whiteSpace=wrap;html=1;fontSize=18;" vertex="1" parent="1">
          <mxGeometry x="1070" y="177.32" width="1240" height="500" as="geometry" />
        </mxCell>
        <mxCell id="3eLNF5xgnCl6N7QSNLwA-135" value="" style="rounded=0;whiteSpace=wrap;html=1;fontSize=14;dashed=1;" vertex="1" parent="1">
          <mxGeometry x="1240" y="237.32" width="645" height="240" as="geometry" />
        </mxCell>
        <mxCell id="3eLNF5xgnCl6N7QSNLwA-1" value="" style="shape=cylinder3;whiteSpace=wrap;html=1;boundedLbl=1;backgroundOutline=1;size=15;rotation=-90;" vertex="1" parent="1">
          <mxGeometry x="686.25" y="-33.25" width="41.5" height="461" as="geometry" />
        </mxCell>
        <mxCell id="3eLNF5xgnCl6N7QSNLwA-2" value="&lt;font style=&quot;font-size: 18px;&quot;&gt;Event Mash&lt;/font&gt;" style="text;html=1;strokeColor=none;fillColor=none;align=center;verticalAlign=middle;whiteSpace=wrap;rounded=0;" vertex="1" parent="1">
          <mxGeometry x="647.25" y="187.5" width="139.5" height="25" as="geometry" />
        </mxCell>
        <mxCell id="3eLNF5xgnCl6N7QSNLwA-3" value="" style="shape=flexArrow;endArrow=classic;html=1;rounded=0;" edge="1" parent="1">
          <mxGeometry width="50" height="50" relative="1" as="geometry">
            <mxPoint x="616.25" y="300" as="sourcePoint" />
            <mxPoint x="616.25" y="220" as="targetPoint" />
          </mxGeometry>
        </mxCell>
        <mxCell id="3eLNF5xgnCl6N7QSNLwA-4" value="Queue" style="text;html=1;strokeColor=none;fillColor=none;align=center;verticalAlign=middle;whiteSpace=wrap;rounded=0;" vertex="1" parent="1">
          <mxGeometry x="626.25" y="250" width="60" height="30" as="geometry" />
        </mxCell>
        <mxCell id="3eLNF5xgnCl6N7QSNLwA-5" value="" style="shape=flexArrow;endArrow=classic;html=1;rounded=0;" edge="1" parent="1">
          <mxGeometry width="50" height="50" relative="1" as="geometry">
            <mxPoint x="716" y="300" as="sourcePoint" />
            <mxPoint x="716" y="220" as="targetPoint" />
          </mxGeometry>
        </mxCell>
        <mxCell id="3eLNF5xgnCl6N7QSNLwA-6" value="Queue" style="text;html=1;strokeColor=none;fillColor=none;align=center;verticalAlign=middle;whiteSpace=wrap;rounded=0;" vertex="1" parent="1">
          <mxGeometry x="840" y="250" width="60" height="30" as="geometry" />
        </mxCell>
        <mxCell id="3eLNF5xgnCl6N7QSNLwA-7" value="" style="shape=flexArrow;endArrow=classic;html=1;rounded=0;" edge="1" parent="1">
          <mxGeometry width="50" height="50" relative="1" as="geometry">
            <mxPoint x="820" y="300" as="sourcePoint" />
            <mxPoint x="820" y="220" as="targetPoint" />
          </mxGeometry>
        </mxCell>
        <mxCell id="3eLNF5xgnCl6N7QSNLwA-8" value="Queue" style="text;html=1;strokeColor=none;fillColor=none;align=center;verticalAlign=middle;whiteSpace=wrap;rounded=0;" vertex="1" parent="1">
          <mxGeometry x="735" y="250" width="60" height="30" as="geometry" />
        </mxCell>
        <mxCell id="3eLNF5xgnCl6N7QSNLwA-9" value="" style="shape=image;verticalLabelPosition=bottom;labelBackgroundColor=default;verticalAlign=top;aspect=fixed;imageAspect=0;image=https://solace.com/wp-content/uploads/2019/01/Solace-logo-green.png;" vertex="1" parent="1">
          <mxGeometry x="280" y="176.47000000000003" width="170" height="47.07" as="geometry" />
        </mxCell>
        <mxCell id="3eLNF5xgnCl6N7QSNLwA-10" value="L0 Crawlers" style="rounded=0;whiteSpace=wrap;html=1;fontSize=16;" vertex="1" parent="1">
          <mxGeometry x="577.75" y="30" width="120" height="60" as="geometry" />
        </mxCell>
        <mxCell id="3eLNF5xgnCl6N7QSNLwA-11" value="L1-3 Services" style="rounded=0;whiteSpace=wrap;html=1;fontSize=16;" vertex="1" parent="1">
          <mxGeometry x="735.25" y="30" width="120" height="60" as="geometry" />
        </mxCell>
        <mxCell id="3eLNF5xgnCl6N7QSNLwA-12" value="" style="shape=flexArrow;endArrow=classic;html=1;rounded=0;exitX=0.5;exitY=1;exitDx=0;exitDy=0;" edge="1" parent="1" source="3eLNF5xgnCl6N7QSNLwA-10">
          <mxGeometry width="50" height="50" relative="1" as="geometry">
            <mxPoint x="637.25" y="76.47000000000003" as="sourcePoint" />
            <mxPoint x="637.25" y="176.47000000000003" as="targetPoint" />
          </mxGeometry>
        </mxCell>
        <mxCell id="3eLNF5xgnCl6N7QSNLwA-13" value="" style="shape=flexArrow;endArrow=classic;html=1;rounded=0;exitX=0.5;exitY=1;exitDx=0;exitDy=0;" edge="1" parent="1">
          <mxGeometry width="50" height="50" relative="1" as="geometry">
            <mxPoint x="795.5" y="90" as="sourcePoint" />
            <mxPoint x="795" y="176.47000000000003" as="targetPoint" />
          </mxGeometry>
        </mxCell>
        <mxCell id="3eLNF5xgnCl6N7QSNLwA-143" style="edgeStyle=orthogonalEdgeStyle;rounded=0;orthogonalLoop=1;jettySize=auto;html=1;exitX=0.5;exitY=1;exitDx=0;exitDy=0;entryX=0.5;entryY=0;entryDx=0;entryDy=0;fontSize=16;startArrow=none;startFill=0;endArrow=classic;endFill=1;" edge="1" parent="1" source="3eLNF5xgnCl6N7QSNLwA-14" target="3eLNF5xgnCl6N7QSNLwA-142">
          <mxGeometry relative="1" as="geometry" />
        </mxCell>
        <mxCell id="3eLNF5xgnCl6N7QSNLwA-14" value="" style="rounded=0;whiteSpace=wrap;html=1;" vertex="1" parent="1">
          <mxGeometry x="560" y="460" width="310" height="160" as="geometry" />
        </mxCell>
        <mxCell id="3eLNF5xgnCl6N7QSNLwA-23" style="edgeStyle=orthogonalEdgeStyle;rounded=0;orthogonalLoop=1;jettySize=auto;html=1;exitX=1;exitY=0.5;exitDx=0;exitDy=0;endArrow=none;endFill=0;fontSize=16;" edge="1" parent="1" source="3eLNF5xgnCl6N7QSNLwA-15" target="3eLNF5xgnCl6N7QSNLwA-16">
          <mxGeometry relative="1" as="geometry" />
        </mxCell>
        <mxCell id="3eLNF5xgnCl6N7QSNLwA-24" style="edgeStyle=orthogonalEdgeStyle;rounded=0;orthogonalLoop=1;jettySize=auto;html=1;exitX=0.5;exitY=1;exitDx=0;exitDy=0;entryX=0.5;entryY=0;entryDx=0;entryDy=0;endArrow=none;endFill=0;fontSize=16;" edge="1" parent="1" source="3eLNF5xgnCl6N7QSNLwA-15" target="3eLNF5xgnCl6N7QSNLwA-17">
          <mxGeometry relative="1" as="geometry" />
        </mxCell>
        <mxCell id="3eLNF5xgnCl6N7QSNLwA-15" value="Data Processor 1" style="rounded=0;whiteSpace=wrap;html=1;fontSize=16;" vertex="1" parent="1">
          <mxGeometry x="582.75" y="470" width="120" height="60" as="geometry" />
        </mxCell>
        <mxCell id="3eLNF5xgnCl6N7QSNLwA-25" style="edgeStyle=orthogonalEdgeStyle;rounded=0;orthogonalLoop=1;jettySize=auto;html=1;exitX=0.5;exitY=1;exitDx=0;exitDy=0;entryX=0.821;entryY=0;entryDx=0;entryDy=0;entryPerimeter=0;endArrow=none;endFill=0;fontSize=16;" edge="1" parent="1" source="3eLNF5xgnCl6N7QSNLwA-16" target="3eLNF5xgnCl6N7QSNLwA-17">
          <mxGeometry relative="1" as="geometry" />
        </mxCell>
        <mxCell id="3eLNF5xgnCl6N7QSNLwA-16" value="Data Processor 2" style="rounded=0;whiteSpace=wrap;html=1;fontSize=16;" vertex="1" parent="1">
          <mxGeometry x="740" y="470" width="120" height="60" as="geometry" />
        </mxCell>
        <mxCell id="3eLNF5xgnCl6N7QSNLwA-17" value="Data Processor 3" style="rounded=0;whiteSpace=wrap;html=1;fontSize=16;" vertex="1" parent="1">
          <mxGeometry x="661.5" y="550" width="120" height="60" as="geometry" />
        </mxCell>
        <mxCell id="3eLNF5xgnCl6N7QSNLwA-28" value="&lt;font style=&quot;font-size: 18px;&quot;&gt;Event&lt;br&gt;processors&lt;/font&gt;" style="text;html=1;strokeColor=none;fillColor=none;align=center;verticalAlign=middle;whiteSpace=wrap;rounded=0;" vertex="1" parent="1">
          <mxGeometry x="536.25" y="585" width="150" height="30" as="geometry" />
        </mxCell>
        <mxCell id="3eLNF5xgnCl6N7QSNLwA-33" value="" style="shape=image;verticalLabelPosition=bottom;labelBackgroundColor=default;verticalAlign=top;aspect=fixed;imageAspect=0;image=https://avatars.githubusercontent.com/u/57027613?s=280&amp;v=4;" vertex="1" parent="1">
          <mxGeometry x="1795" y="33.79000000000002" width="110" height="110" as="geometry" />
        </mxCell>
        <mxCell id="3eLNF5xgnCl6N7QSNLwA-84" style="edgeStyle=orthogonalEdgeStyle;rounded=0;orthogonalLoop=1;jettySize=auto;html=1;exitX=1;exitY=0.5;exitDx=0;exitDy=0;entryX=0;entryY=0.5;entryDx=0;entryDy=0;fontSize=18;startArrow=none;startFill=0;endArrow=classic;endFill=1;" edge="1" parent="1" source="3eLNF5xgnCl6N7QSNLwA-45" target="3eLNF5xgnCl6N7QSNLwA-97">
          <mxGeometry relative="1" as="geometry">
            <mxPoint x="1275.8000000000002" y="546.7" as="targetPoint" />
            <Array as="points">
              <mxPoint x="880" y="910" />
              <mxPoint x="980" y="910" />
              <mxPoint x="980" y="287" />
            </Array>
          </mxGeometry>
        </mxCell>
        <mxCell id="3eLNF5xgnCl6N7QSNLwA-85" value="&lt;font style=&quot;font-size: 14px;&quot;&gt;Partitioned Data&lt;/font&gt;" style="edgeLabel;html=1;align=center;verticalAlign=middle;resizable=0;points=[];fontSize=18;" vertex="1" connectable="0" parent="3eLNF5xgnCl6N7QSNLwA-84">
          <mxGeometry x="-0.0762" y="-3" relative="1" as="geometry">
            <mxPoint x="2" as="offset" />
          </mxGeometry>
        </mxCell>
        <mxCell id="3eLNF5xgnCl6N7QSNLwA-89" style="edgeStyle=orthogonalEdgeStyle;rounded=0;orthogonalLoop=1;jettySize=auto;html=1;fontSize=18;startArrow=none;startFill=0;endArrow=classic;endFill=1;" edge="1" parent="1" source="3eLNF5xgnCl6N7QSNLwA-45" target="3eLNF5xgnCl6N7QSNLwA-88">
          <mxGeometry relative="1" as="geometry" />
        </mxCell>
        <mxCell id="3eLNF5xgnCl6N7QSNLwA-45" value="" style="rounded=0;whiteSpace=wrap;html=1;" vertex="1" parent="1">
          <mxGeometry x="550" y="841.58" width="330" height="150" as="geometry" />
        </mxCell>
        <mxCell id="3eLNF5xgnCl6N7QSNLwA-47" value="Partition 1" style="rounded=0;whiteSpace=wrap;html=1;fontSize=16;" vertex="1" parent="1">
          <mxGeometry x="593" y="851.58" width="120" height="60" as="geometry" />
        </mxCell>
        <mxCell id="3eLNF5xgnCl6N7QSNLwA-48" value="Partition 2" style="rounded=0;whiteSpace=wrap;html=1;fontSize=16;" vertex="1" parent="1">
          <mxGeometry x="724.5" y="851.58" width="120" height="60" as="geometry" />
        </mxCell>
        <mxCell id="3eLNF5xgnCl6N7QSNLwA-49" value="Partition 3" style="rounded=0;whiteSpace=wrap;html=1;fontSize=16;" vertex="1" parent="1">
          <mxGeometry x="658.75" y="921.58" width="120" height="60" as="geometry" />
        </mxCell>
        <mxCell id="3eLNF5xgnCl6N7QSNLwA-50" value="&lt;font style=&quot;font-size: 18px;&quot;&gt;Data &lt;br&gt;Lakehouse&lt;/font&gt;" style="text;html=1;strokeColor=none;fillColor=none;align=center;verticalAlign=middle;whiteSpace=wrap;rounded=0;" vertex="1" parent="1">
          <mxGeometry x="530" y="951.58" width="149.75" height="30" as="geometry" />
        </mxCell>
        <mxCell id="3eLNF5xgnCl6N7QSNLwA-53" value="" style="shape=image;verticalLabelPosition=bottom;labelBackgroundColor=default;verticalAlign=top;aspect=fixed;imageAspect=0;image=https://upload.wikimedia.org/wikipedia/commons/thumb/4/47/Apache_Parquet_logo.svg/2560px-Apache_Parquet_logo.svg.png;fontSize=16;" vertex="1" parent="1">
          <mxGeometry x="810" y="1000" width="120" height="24.46" as="geometry" />
        </mxCell>
        <mxCell id="3eLNF5xgnCl6N7QSNLwA-54" value="" style="shape=image;verticalLabelPosition=bottom;labelBackgroundColor=default;verticalAlign=top;aspect=fixed;imageAspect=0;image=https://blog.knoldus.com/wp-content/uploads/2022/03/spark_streaming_logo.png;" vertex="1" parent="1">
          <mxGeometry x="350" y="483.85" width="200" height="126.15" as="geometry" />
        </mxCell>
        <mxCell id="3eLNF5xgnCl6N7QSNLwA-65" value="&lt;font style=&quot;font-size: 14px;&quot;&gt;Stream&lt;/font&gt;" style="edgeStyle=orthogonalEdgeStyle;rounded=0;orthogonalLoop=1;jettySize=auto;html=1;exitX=0.5;exitY=1;exitDx=0;exitDy=0;fontSize=18;endArrow=classic;endFill=1;" edge="1" parent="1" source="3eLNF5xgnCl6N7QSNLwA-63" target="3eLNF5xgnCl6N7QSNLwA-14">
          <mxGeometry relative="1" as="geometry" />
        </mxCell>
        <mxCell id="3eLNF5xgnCl6N7QSNLwA-63" value="&lt;font style=&quot;font-size: 18px;&quot;&gt;Solace - Kafka Adapter&lt;/font&gt;" style="rounded=0;whiteSpace=wrap;html=1;fontSize=12;align=center;" vertex="1" parent="1">
          <mxGeometry x="590.25" y="300" width="250" height="90" as="geometry" />
        </mxCell>
        <mxCell id="3eLNF5xgnCl6N7QSNLwA-64" value="" style="shape=image;verticalLabelPosition=bottom;labelBackgroundColor=default;verticalAlign=top;aspect=fixed;imageAspect=0;image=https://upload.wikimedia.org/wikipedia/commons/thumb/5/53/Apache_kafka_wordtype.svg/2560px-Apache_kafka_wordtype.svg.png;" vertex="1" parent="1">
          <mxGeometry x="391.25" y="308.05" width="190" height="95" as="geometry" />
        </mxCell>
        <mxCell id="3eLNF5xgnCl6N7QSNLwA-67" value="" style="shape=image;verticalLabelPosition=bottom;labelBackgroundColor=default;verticalAlign=top;aspect=fixed;imageAspect=0;image=https://www.katacoda.com/kubeflow/avatar;" vertex="1" parent="1">
          <mxGeometry x="1370" y="1230" width="140" height="140" as="geometry" />
        </mxCell>
        <mxCell id="3eLNF5xgnCl6N7QSNLwA-130" style="edgeStyle=orthogonalEdgeStyle;rounded=0;orthogonalLoop=1;jettySize=auto;html=1;exitX=1;exitY=0.5;exitDx=0;exitDy=0;exitPerimeter=0;fontSize=14;startArrow=none;startFill=0;endArrow=classic;endFill=1;" edge="1" parent="1" source="3eLNF5xgnCl6N7QSNLwA-71" target="3eLNF5xgnCl6N7QSNLwA-129">
          <mxGeometry relative="1" as="geometry" />
        </mxCell>
        <mxCell id="3eLNF5xgnCl6N7QSNLwA-71" value="" style="shape=cylinder3;whiteSpace=wrap;html=1;boundedLbl=1;backgroundOutline=1;size=15;fontSize=18;" vertex="1" parent="1">
          <mxGeometry x="1990" y="247.31999999999994" width="60" height="80" as="geometry" />
        </mxCell>
        <mxCell id="3eLNF5xgnCl6N7QSNLwA-72" value="&lt;font style=&quot;font-size: 14px;&quot;&gt;Online Store&lt;/font&gt;" style="text;html=1;strokeColor=none;fillColor=none;align=center;verticalAlign=middle;whiteSpace=wrap;rounded=0;fontSize=18;" vertex="1" parent="1">
          <mxGeometry x="1990" y="207.31999999999994" width="60" height="30" as="geometry" />
        </mxCell>
        <mxCell id="3eLNF5xgnCl6N7QSNLwA-73" value="" style="sketch=0;aspect=fixed;html=1;points=[];align=center;image;fontSize=12;image=img/lib/mscae/Cache_Redis_Product.svg;" vertex="1" parent="1">
          <mxGeometry x="1995" y="282.81999999999994" width="50" height="42" as="geometry" />
        </mxCell>
        <mxCell id="3eLNF5xgnCl6N7QSNLwA-78" value="Feature Store Components by Feast" style="text;html=1;strokeColor=none;fillColor=none;align=center;verticalAlign=middle;whiteSpace=wrap;rounded=0;fontSize=18;" vertex="1" parent="1">
          <mxGeometry x="1380" y="113.79000000000002" width="230" height="30" as="geometry" />
        </mxCell>
        <mxCell id="3eLNF5xgnCl6N7QSNLwA-106" style="edgeStyle=orthogonalEdgeStyle;rounded=0;orthogonalLoop=1;jettySize=auto;html=1;exitX=0.5;exitY=1;exitDx=0;exitDy=0;entryX=0.5;entryY=0;entryDx=0;entryDy=0;fontSize=16;startArrow=none;startFill=0;endArrow=classic;endFill=1;" edge="1" parent="1" source="3eLNF5xgnCl6N7QSNLwA-86" target="3eLNF5xgnCl6N7QSNLwA-104">
          <mxGeometry relative="1" as="geometry" />
        </mxCell>
        <mxCell id="3eLNF5xgnCl6N7QSNLwA-107" style="edgeStyle=orthogonalEdgeStyle;rounded=0;orthogonalLoop=1;jettySize=auto;html=1;exitX=0.5;exitY=1;exitDx=0;exitDy=0;entryX=0.5;entryY=0;entryDx=0;entryDy=0;fontSize=16;startArrow=none;startFill=0;endArrow=classic;endFill=1;" edge="1" parent="1" source="3eLNF5xgnCl6N7QSNLwA-86" target="3eLNF5xgnCl6N7QSNLwA-105">
          <mxGeometry relative="1" as="geometry" />
        </mxCell>
        <mxCell id="3eLNF5xgnCl6N7QSNLwA-160" style="edgeStyle=orthogonalEdgeStyle;rounded=0;orthogonalLoop=1;jettySize=auto;html=1;exitX=1;exitY=0.5;exitDx=0;exitDy=0;fontSize=16;startArrow=none;startFill=0;endArrow=classic;endFill=1;" edge="1" parent="1" source="3eLNF5xgnCl6N7QSNLwA-86" target="3eLNF5xgnCl6N7QSNLwA-129">
          <mxGeometry relative="1" as="geometry" />
        </mxCell>
        <mxCell id="3eLNF5xgnCl6N7QSNLwA-86" value="Feast&lt;br style=&quot;font-size: 16px;&quot;&gt;Registry" style="rounded=0;whiteSpace=wrap;html=1;fontSize=16;" vertex="1" parent="1">
          <mxGeometry x="1590.62" y="497.32000000000005" width="120" height="60" as="geometry" />
        </mxCell>
        <mxCell id="3eLNF5xgnCl6N7QSNLwA-88" value="" style="verticalLabelPosition=bottom;html=1;verticalAlign=top;align=center;strokeColor=none;fillColor=#00BEF2;shape=mxgraph.azure.sql_database_sql_azure;fontSize=18;" vertex="1" parent="1">
          <mxGeometry x="666.5" y="1061.58" width="97" height="100" as="geometry" />
        </mxCell>
        <mxCell id="3eLNF5xgnCl6N7QSNLwA-90" value="Analytic tools" style="text;html=1;strokeColor=none;fillColor=none;align=center;verticalAlign=middle;whiteSpace=wrap;rounded=0;fontSize=18;" vertex="1" parent="1">
          <mxGeometry x="688.75" y="1181.58" width="60" height="30" as="geometry" />
        </mxCell>
        <mxCell id="3eLNF5xgnCl6N7QSNLwA-99" style="edgeStyle=orthogonalEdgeStyle;rounded=0;orthogonalLoop=1;jettySize=auto;html=1;exitX=1;exitY=0.5;exitDx=0;exitDy=0;entryX=0;entryY=0.5;entryDx=0;entryDy=0;fontSize=16;startArrow=none;startFill=0;endArrow=classic;endFill=1;" edge="1" parent="1" source="3eLNF5xgnCl6N7QSNLwA-92" target="3eLNF5xgnCl6N7QSNLwA-96">
          <mxGeometry relative="1" as="geometry" />
        </mxCell>
        <mxCell id="3eLNF5xgnCl6N7QSNLwA-109" style="edgeStyle=orthogonalEdgeStyle;rounded=0;orthogonalLoop=1;jettySize=auto;html=1;exitX=1;exitY=0.5;exitDx=0;exitDy=0;entryX=0;entryY=0.5;entryDx=0;entryDy=0;fontSize=16;startArrow=none;startFill=0;endArrow=classic;endFill=1;" edge="1" parent="1" source="3eLNF5xgnCl6N7QSNLwA-92" target="3eLNF5xgnCl6N7QSNLwA-108">
          <mxGeometry relative="1" as="geometry" />
        </mxCell>
        <mxCell id="3eLNF5xgnCl6N7QSNLwA-111" style="edgeStyle=orthogonalEdgeStyle;rounded=0;orthogonalLoop=1;jettySize=auto;html=1;exitX=1;exitY=0.5;exitDx=0;exitDy=0;entryX=0;entryY=0.5;entryDx=0;entryDy=0;fontSize=16;startArrow=none;startFill=0;endArrow=classic;endFill=1;" edge="1" parent="1" source="3eLNF5xgnCl6N7QSNLwA-92" target="3eLNF5xgnCl6N7QSNLwA-110">
          <mxGeometry relative="1" as="geometry" />
        </mxCell>
        <mxCell id="3eLNF5xgnCl6N7QSNLwA-92" value="&lt;font style=&quot;font-size: 16px;&quot;&gt;Data Ingestion&lt;/font&gt;" style="rounded=0;whiteSpace=wrap;html=1;fontSize=18;" vertex="1" parent="1">
          <mxGeometry x="1260" y="257.31999999999994" width="120" height="60" as="geometry" />
        </mxCell>
        <mxCell id="3eLNF5xgnCl6N7QSNLwA-113" style="edgeStyle=orthogonalEdgeStyle;rounded=0;orthogonalLoop=1;jettySize=auto;html=1;exitX=1;exitY=0.5;exitDx=0;exitDy=0;entryX=0;entryY=0.5;entryDx=0;entryDy=0;fontSize=16;startArrow=none;startFill=0;endArrow=classic;endFill=1;" edge="1" parent="1" source="3eLNF5xgnCl6N7QSNLwA-96" target="3eLNF5xgnCl6N7QSNLwA-112">
          <mxGeometry relative="1" as="geometry" />
        </mxCell>
        <mxCell id="3eLNF5xgnCl6N7QSNLwA-96" value="&lt;font style=&quot;font-size: 16px;&quot;&gt;Entities &lt;br&gt;(feature keys)&lt;/font&gt;" style="rounded=0;whiteSpace=wrap;html=1;fontSize=16;" vertex="1" parent="1">
          <mxGeometry x="1420" y="257.31999999999994" width="120" height="60" as="geometry" />
        </mxCell>
        <mxCell id="3eLNF5xgnCl6N7QSNLwA-134" style="edgeStyle=orthogonalEdgeStyle;rounded=0;orthogonalLoop=1;jettySize=auto;html=1;exitX=0.5;exitY=1;exitDx=0;exitDy=0;fontSize=14;startArrow=none;startFill=0;endArrow=classic;endFill=1;" edge="1" parent="1" source="3eLNF5xgnCl6N7QSNLwA-97" target="3eLNF5xgnCl6N7QSNLwA-125">
          <mxGeometry relative="1" as="geometry" />
        </mxCell>
        <mxCell id="3eLNF5xgnCl6N7QSNLwA-138" value="&lt;font style=&quot;font-size: 14px;&quot;&gt;Feature&lt;br&gt;creation&lt;/font&gt;" style="edgeLabel;html=1;align=center;verticalAlign=middle;resizable=0;points=[];fontSize=18;" vertex="1" connectable="0" parent="3eLNF5xgnCl6N7QSNLwA-134">
          <mxGeometry x="-0.005" y="-1" relative="1" as="geometry">
            <mxPoint as="offset" />
          </mxGeometry>
        </mxCell>
        <mxCell id="3eLNF5xgnCl6N7QSNLwA-97" value="&lt;font style=&quot;font-size: 16px;&quot;&gt;Data Source&lt;/font&gt;" style="rounded=0;whiteSpace=wrap;html=1;fontSize=18;" vertex="1" parent="1">
          <mxGeometry x="1100" y="257.31999999999994" width="120" height="60" as="geometry" />
        </mxCell>
        <mxCell id="3eLNF5xgnCl6N7QSNLwA-102" value="Feast project flow" style="text;html=1;strokeColor=none;fillColor=none;align=center;verticalAlign=middle;whiteSpace=wrap;rounded=0;fontSize=18;" vertex="1" parent="1">
          <mxGeometry x="1080" y="187.32" width="160" height="30" as="geometry" />
        </mxCell>
        <mxCell id="3eLNF5xgnCl6N7QSNLwA-104" value="File-base&lt;br style=&quot;font-size: 16px;&quot;&gt;(oss)" style="rounded=0;whiteSpace=wrap;html=1;fontSize=16;" vertex="1" parent="1">
          <mxGeometry x="1525.25" y="597.32" width="120" height="60" as="geometry" />
        </mxCell>
        <mxCell id="3eLNF5xgnCl6N7QSNLwA-105" value="SQL base" style="rounded=0;whiteSpace=wrap;html=1;fontSize=16;" vertex="1" parent="1">
          <mxGeometry x="1656" y="597.32" width="120" height="60" as="geometry" />
        </mxCell>
        <mxCell id="3eLNF5xgnCl6N7QSNLwA-114" style="edgeStyle=orthogonalEdgeStyle;rounded=0;orthogonalLoop=1;jettySize=auto;html=1;exitX=1;exitY=0.5;exitDx=0;exitDy=0;entryX=0;entryY=0.5;entryDx=0;entryDy=0;fontSize=16;startArrow=none;startFill=0;endArrow=classic;endFill=1;" edge="1" parent="1" source="3eLNF5xgnCl6N7QSNLwA-108" target="3eLNF5xgnCl6N7QSNLwA-112">
          <mxGeometry relative="1" as="geometry">
            <Array as="points">
              <mxPoint x="1580" y="362.32000000000005" />
              <mxPoint x="1580" y="287.31999999999994" />
            </Array>
          </mxGeometry>
        </mxCell>
        <mxCell id="3eLNF5xgnCl6N7QSNLwA-108" value="&lt;font style=&quot;font-size: 16px;&quot;&gt;Feature schema&lt;/font&gt;" style="rounded=0;whiteSpace=wrap;html=1;fontSize=16;" vertex="1" parent="1">
          <mxGeometry x="1420" y="332.31999999999994" width="120" height="60" as="geometry" />
        </mxCell>
        <mxCell id="3eLNF5xgnCl6N7QSNLwA-115" style="edgeStyle=orthogonalEdgeStyle;rounded=0;orthogonalLoop=1;jettySize=auto;html=1;exitX=1;exitY=0.5;exitDx=0;exitDy=0;entryX=0;entryY=0.5;entryDx=0;entryDy=0;fontSize=16;startArrow=none;startFill=0;endArrow=classic;endFill=1;" edge="1" parent="1" source="3eLNF5xgnCl6N7QSNLwA-110" target="3eLNF5xgnCl6N7QSNLwA-112">
          <mxGeometry relative="1" as="geometry">
            <Array as="points">
              <mxPoint x="1580" y="437.32000000000005" />
              <mxPoint x="1580" y="287.31999999999994" />
            </Array>
          </mxGeometry>
        </mxCell>
        <mxCell id="3eLNF5xgnCl6N7QSNLwA-118" value="Single /&lt;br style=&quot;font-size: 16px;&quot;&gt;Multiple / None" style="edgeLabel;html=1;align=center;verticalAlign=middle;resizable=0;points=[];fontSize=16;" vertex="1" connectable="0" parent="3eLNF5xgnCl6N7QSNLwA-115">
          <mxGeometry x="0.4729" y="2" relative="1" as="geometry">
            <mxPoint as="offset" />
          </mxGeometry>
        </mxCell>
        <mxCell id="3eLNF5xgnCl6N7QSNLwA-110" value="&lt;font style=&quot;font-size: 16px;&quot;&gt;Metadata&lt;/font&gt;" style="rounded=0;whiteSpace=wrap;html=1;fontSize=16;" vertex="1" parent="1">
          <mxGeometry x="1420" y="407.32000000000005" width="120" height="60" as="geometry" />
        </mxCell>
        <mxCell id="3eLNF5xgnCl6N7QSNLwA-123" style="edgeStyle=orthogonalEdgeStyle;rounded=0;orthogonalLoop=1;jettySize=auto;html=1;exitX=1;exitY=0.5;exitDx=0;exitDy=0;entryX=0;entryY=0.5;entryDx=0;entryDy=0;entryPerimeter=0;fontSize=14;startArrow=none;startFill=0;endArrow=classic;endFill=1;" edge="1" parent="1" source="3eLNF5xgnCl6N7QSNLwA-112" target="3eLNF5xgnCl6N7QSNLwA-71">
          <mxGeometry relative="1" as="geometry" />
        </mxCell>
        <mxCell id="3eLNF5xgnCl6N7QSNLwA-136" style="edgeStyle=orthogonalEdgeStyle;rounded=0;orthogonalLoop=1;jettySize=auto;html=1;exitX=0.5;exitY=1;exitDx=0;exitDy=0;fontSize=16;startArrow=none;startFill=0;endArrow=classic;endFill=1;" edge="1" parent="1" source="3eLNF5xgnCl6N7QSNLwA-112" target="3eLNF5xgnCl6N7QSNLwA-86">
          <mxGeometry relative="1" as="geometry" />
        </mxCell>
        <mxCell id="3eLNF5xgnCl6N7QSNLwA-112" value="Feature View" style="rounded=0;whiteSpace=wrap;html=1;fontSize=16;" vertex="1" parent="1">
          <mxGeometry x="1745.75" y="257.31999999999994" width="120" height="60" as="geometry" />
        </mxCell>
        <mxCell id="3eLNF5xgnCl6N7QSNLwA-119" value="Data must be timestamped" style="text;html=1;strokeColor=none;fillColor=none;align=center;verticalAlign=middle;whiteSpace=wrap;rounded=0;fontSize=14;" vertex="1" parent="1">
          <mxGeometry x="1784.25" y="442.32000000000005" width="100.75" height="30" as="geometry" />
        </mxCell>
        <mxCell id="3eLNF5xgnCl6N7QSNLwA-121" value="&lt;font style=&quot;font-size: 16px;&quot;&gt;Materialization&lt;/font&gt;" style="text;html=1;strokeColor=none;fillColor=none;align=center;verticalAlign=middle;whiteSpace=wrap;rounded=0;fontSize=16;" vertex="1" parent="1">
          <mxGeometry x="1532.5" y="207.32" width="60" height="30" as="geometry" />
        </mxCell>
        <mxCell id="3eLNF5xgnCl6N7QSNLwA-128" style="edgeStyle=orthogonalEdgeStyle;rounded=0;orthogonalLoop=1;jettySize=auto;html=1;exitX=1;exitY=0;exitDx=0;exitDy=52.5;exitPerimeter=0;entryX=0.5;entryY=1;entryDx=0;entryDy=0;fontSize=14;startArrow=none;startFill=0;endArrow=classic;endFill=1;" edge="1" parent="1" source="3eLNF5xgnCl6N7QSNLwA-125" target="3eLNF5xgnCl6N7QSNLwA-92">
          <mxGeometry relative="1" as="geometry" />
        </mxCell>
        <mxCell id="3eLNF5xgnCl6N7QSNLwA-155" style="edgeStyle=orthogonalEdgeStyle;rounded=0;orthogonalLoop=1;jettySize=auto;html=1;exitX=0.5;exitY=1;exitDx=0;exitDy=0;exitPerimeter=0;fontSize=16;startArrow=none;startFill=0;endArrow=classic;endFill=1;" edge="1" parent="1" source="3eLNF5xgnCl6N7QSNLwA-125" target="3eLNF5xgnCl6N7QSNLwA-153">
          <mxGeometry relative="1" as="geometry" />
        </mxCell>
        <mxCell id="3eLNF5xgnCl6N7QSNLwA-125" value="" style="shape=cylinder3;whiteSpace=wrap;html=1;boundedLbl=1;backgroundOutline=1;size=15;fontSize=14;" vertex="1" parent="1">
          <mxGeometry x="1130" y="487.32000000000005" width="60" height="80" as="geometry" />
        </mxCell>
        <mxCell id="3eLNF5xgnCl6N7QSNLwA-126" value="&lt;font style=&quot;font-size: 14px;&quot;&gt;Offline&lt;br&gt;Store&lt;br&gt;&lt;/font&gt;" style="text;html=1;strokeColor=none;fillColor=none;align=center;verticalAlign=middle;whiteSpace=wrap;rounded=0;fontSize=18;" vertex="1" parent="1">
          <mxGeometry x="1130" y="525.0000000000001" width="60" height="30" as="geometry" />
        </mxCell>
        <mxCell id="3eLNF5xgnCl6N7QSNLwA-161" style="edgeStyle=orthogonalEdgeStyle;rounded=0;orthogonalLoop=1;jettySize=auto;html=1;exitX=0.75;exitY=1;exitDx=0;exitDy=0;fontSize=16;startArrow=none;startFill=0;endArrow=classic;endFill=1;" edge="1" parent="1" source="3eLNF5xgnCl6N7QSNLwA-129" target="3eLNF5xgnCl6N7QSNLwA-156">
          <mxGeometry relative="1" as="geometry" />
        </mxCell>
        <mxCell id="3eLNF5xgnCl6N7QSNLwA-129" value="Feast Online Serving Service" style="rounded=0;whiteSpace=wrap;html=1;fontSize=14;" vertex="1" parent="1">
          <mxGeometry x="2160" y="257.31999999999994" width="120" height="60" as="geometry" />
        </mxCell>
        <mxCell id="3eLNF5xgnCl6N7QSNLwA-139" value="" style="shape=image;verticalLabelPosition=bottom;labelBackgroundColor=default;verticalAlign=top;aspect=fixed;imageAspect=0;image=https://prestodb.io/img/logo-presto-color.svg;" vertex="1" parent="1">
          <mxGeometry x="501.5" y="716.98" width="145.75" height="46.04" as="geometry" />
        </mxCell>
        <mxCell id="3eLNF5xgnCl6N7QSNLwA-141" value="" style="shape=image;verticalLabelPosition=bottom;labelBackgroundColor=default;verticalAlign=top;aspect=fixed;imageAspect=0;image=https://camo.githubusercontent.com/5535944a613e60c9be4d3a96e3d9bd34e5aba5cddc1aa6c6153123a958698289/68747470733a2f2f646f63732e64656c74612e696f2f6c61746573742f5f7374617469632f64656c74612d6c616b652d77686974652e706e67;" vertex="1" parent="1">
          <mxGeometry x="391.25" y="851.58" width="145" height="118.79" as="geometry" />
        </mxCell>
        <mxCell id="3eLNF5xgnCl6N7QSNLwA-144" style="edgeStyle=orthogonalEdgeStyle;rounded=0;orthogonalLoop=1;jettySize=auto;html=1;exitX=0.5;exitY=1;exitDx=0;exitDy=0;entryX=0.5;entryY=0;entryDx=0;entryDy=0;fontSize=16;startArrow=none;startFill=0;endArrow=classic;endFill=1;" edge="1" parent="1" source="3eLNF5xgnCl6N7QSNLwA-142" target="3eLNF5xgnCl6N7QSNLwA-45">
          <mxGeometry relative="1" as="geometry" />
        </mxCell>
        <mxCell id="3eLNF5xgnCl6N7QSNLwA-142" value="SQL Adapter" style="rounded=0;whiteSpace=wrap;html=1;fontSize=16;" vertex="1" parent="1">
          <mxGeometry x="655.5" y="710" width="120" height="60" as="geometry" />
        </mxCell>
        <mxCell id="3eLNF5xgnCl6N7QSNLwA-145" value="" style="endArrow=classic;html=1;rounded=0;fontSize=16;shape=flexArrow;" edge="1" parent="1">
          <mxGeometry width="50" height="50" relative="1" as="geometry">
            <mxPoint x="220" y="120" as="sourcePoint" />
            <mxPoint x="2320" y="1230" as="targetPoint" />
            <Array as="points">
              <mxPoint x="210" y="1220" />
            </Array>
          </mxGeometry>
        </mxCell>
        <mxCell id="3eLNF5xgnCl6N7QSNLwA-147" value="Task Orchestration" style="rounded=0;whiteSpace=wrap;html=1;fontSize=16;" vertex="1" parent="1">
          <mxGeometry x="1515" y="1269.21" width="120" height="60" as="geometry" />
        </mxCell>
        <mxCell id="3eLNF5xgnCl6N7QSNLwA-148" value="Containerize" style="rounded=0;whiteSpace=wrap;html=1;fontSize=16;" vertex="1" parent="1">
          <mxGeometry x="1650.75" y="1270.79" width="120" height="60" as="geometry" />
        </mxCell>
        <mxCell id="3eLNF5xgnCl6N7QSNLwA-149" value="CI/CD Integration" style="rounded=0;whiteSpace=wrap;html=1;fontSize=16;" vertex="1" parent="1">
          <mxGeometry x="1790" y="1270.79" width="120" height="60" as="geometry" />
        </mxCell>
        <mxCell id="3eLNF5xgnCl6N7QSNLwA-150" value="" style="shape=image;verticalLabelPosition=bottom;labelBackgroundColor=default;verticalAlign=top;aspect=fixed;imageAspect=0;image=https://coralogix.com/wp-content/uploads/2021/06/Argo-CD-Version-Tags-1000X1000.png;" vertex="1" parent="1">
          <mxGeometry x="1618" y="1385" width="140" height="140" as="geometry" />
        </mxCell>
        <mxCell id="3eLNF5xgnCl6N7QSNLwA-157" style="edgeStyle=orthogonalEdgeStyle;rounded=0;orthogonalLoop=1;jettySize=auto;html=1;exitX=1;exitY=0.5;exitDx=0;exitDy=0;entryX=0;entryY=0.5;entryDx=0;entryDy=0;fontSize=16;startArrow=none;startFill=0;endArrow=classic;endFill=1;" edge="1" parent="1" source="3eLNF5xgnCl6N7QSNLwA-153" target="3eLNF5xgnCl6N7QSNLwA-156">
          <mxGeometry relative="1" as="geometry" />
        </mxCell>
        <mxCell id="3eLNF5xgnCl6N7QSNLwA-159" value="Deploy model" style="edgeLabel;html=1;align=center;verticalAlign=middle;resizable=0;points=[];fontSize=16;" vertex="1" connectable="0" parent="3eLNF5xgnCl6N7QSNLwA-157">
          <mxGeometry x="0.0027" y="-1" relative="1" as="geometry">
            <mxPoint as="offset" />
          </mxGeometry>
        </mxCell>
        <mxCell id="3eLNF5xgnCl6N7QSNLwA-153" value="Model Training" style="rounded=0;whiteSpace=wrap;html=1;fontSize=16;" vertex="1" parent="1">
          <mxGeometry x="1100" y="820" width="120" height="60" as="geometry" />
        </mxCell>
        <mxCell id="3eLNF5xgnCl6N7QSNLwA-156" value="Model Serving" style="rounded=0;whiteSpace=wrap;html=1;fontSize=16;" vertex="1" parent="1">
          <mxGeometry x="2190" y="820" width="120" height="60" as="geometry" />
        </mxCell>
        <mxCell id="3eLNF5xgnCl6N7QSNLwA-162" value="" style="shape=image;verticalLabelPosition=bottom;labelBackgroundColor=default;verticalAlign=top;aspect=fixed;imageAspect=0;image=https://upload.wikimedia.org/wikipedia/commons/thumb/3/38/Prometheus_software_logo.svg/1200px-Prometheus_software_logo.svg.png;" vertex="1" parent="1">
          <mxGeometry x="1950.75" y="1395.46" width="120" height="119.08" as="geometry" />
        </mxCell>
        <mxCell id="3eLNF5xgnCl6N7QSNLwA-163" value="" style="shape=image;verticalLabelPosition=bottom;labelBackgroundColor=default;verticalAlign=top;aspect=fixed;imageAspect=0;image=https://istio.io/img/logo.png;" vertex="1" parent="1">
          <mxGeometry x="1770.75" y="1380" width="150" height="150" as="geometry" />
        </mxCell>
        <mxCell id="3eLNF5xgnCl6N7QSNLwA-164" value="Supports:" style="text;html=1;strokeColor=none;fillColor=none;align=center;verticalAlign=middle;whiteSpace=wrap;rounded=0;fontSize=16;" vertex="1" parent="1">
          <mxGeometry x="1540" y="1440" width="60" height="30" as="geometry" />
        </mxCell>
      </root>
    </mxGraphModel>
  </diagram>
</mxfile>
